<svg xmlns="http://www.w3.org/2000/svg" width="107.635" height="107.634" viewBox="0 0 107.635 107.634">
  <g id="checked" transform="translate(-0.475 511.865)">
    <path id="Path_1198" data-name="Path 1198" d="M49.416-511.683A54.667,54.667,0,0,0,21-500.359,62.06,62.06,0,0,0,8.5-486.426a73.41,73.41,0,0,0-4.841,9.913,65.417,65.417,0,0,0-2.694,10.5,65.605,65.605,0,0,0,0,16,53.118,53.118,0,0,0,4.988,15.68A49.958,49.958,0,0,0,16.245-420a49.959,49.959,0,0,0,14.333,10.292,53.118,53.118,0,0,0,15.68,4.988,65.605,65.605,0,0,0,16,0,65.416,65.416,0,0,0,10.5-2.694,73.4,73.4,0,0,0,9.913-4.841A58.231,58.231,0,0,0,100.014-429.6a73.409,73.409,0,0,0,4.841-9.913,56.994,56.994,0,0,0,3.2-15.975c.168-3.241,0-4.02-1.031-5.2a3.982,3.982,0,0,0-6.861,1.831,13.739,13.739,0,0,0-.232,2.568,46.333,46.333,0,0,1-1.368,9.556,45.894,45.894,0,0,1-33.023,33.023,46.847,46.847,0,0,1-22.647-.021A45.849,45.849,0,0,1,8.92-452.076a55.95,55.95,0,0,1,0-11.871A45.874,45.874,0,0,1,42.891-502.3a45.8,45.8,0,0,1,9.64-1.389c3.01-.021,4.546-.716,5.325-2.4a3.936,3.936,0,0,0-2.021-5.409C54.909-511.914,52.8-511.977,49.416-511.683Z" transform="translate(0 0)" fill="#208e73"/>
    <path id="Path_1199" data-name="Path 1199" d="M197.283-447.482a5.482,5.482,0,0,0-1.158.442c-.295.147-11.555,11.281-25.046,24.752l-24.52,24.457-6.1-6.63c-11.3-12.313-11.892-12.923-12.9-13.365a3.876,3.876,0,0,0-5.072,1.768,4.387,4.387,0,0,0-.042,3.7c.358.695,6.419,7.367,17.869,19.7,3.831,4.125,4.63,4.757,6.146,4.757,1.768,0,1.431.316,28.877-27.088,28.372-28.33,27.088-26.941,26.857-29A4.156,4.156,0,0,0,197.283-447.482Z" transform="translate(-95.986 -50.751)" fill="#208e73"/>
  </g>
</svg>
