<svg xmlns="http://www.w3.org/2000/svg" width="31.12" height="30.849" viewBox="0 0 31.12 30.849">
  <g id="noun-paper-2070597" transform="translate(-64.894 0.17)">
    <path id="Path_1387" data-name="Path 1387" d="M91.918,22.446H88.7V3.935a4.1,4.1,0,0,0-4.1-4.1H69.27a4.1,4.1,0,1,0,0,8.172H72.5v18.52a4.171,4.171,0,0,0,4.1,4.146H91.918a4.171,4.171,0,0,0,4.1-4.146,4.1,4.1,0,0,0-4.1-4.086Zm-1.793.964a2.052,2.052,0,0,0,0,2.2H88.68v-2.2ZM66.139,3.935A3.132,3.132,0,0,1,69.271.8H81.992a4.077,4.077,0,0,0-1.446,3.132v.116a.467.467,0,0,0,0,.1,4.076,4.076,0,0,0,1.446,2.906H69.271a3.132,3.132,0,0,1-3.132-3.122ZM84.567,7.067a3.132,3.132,0,0,1-3.009-2.544h2.988a1.261,1.261,0,0,1,.022,2.522ZM76.576,29.715a3.195,3.195,0,0,1-3.132-3.183V8.011H84.68a2.224,2.224,0,0,0-.133-4.445H81.514a3.132,3.132,0,0,1,6.221.369V26.542a4.182,4.182,0,0,0,1.5,3.173Zm15.342,0h-.106A3.195,3.195,0,0,1,88.68,26.57h3.178a.482.482,0,1,0,0-.964,1.1,1.1,0,1,1,0-2.2h.06a3.132,3.132,0,0,1,3.132,3.132,3.194,3.194,0,0,1-3.132,3.173Z" transform="translate(0 0)"/>
    <path id="Path_1388" data-name="Path 1388" d="M265.15,214.38h-9.478a.482.482,0,1,0,0,.964h9.478a.482.482,0,0,0,0-.964Z" transform="translate(-179.816 -202.735)"/>
    <path id="Path_1389" data-name="Path 1389" d="M265.15,271.25h-9.478a.482.482,0,1,0,0,.964h9.478a.482.482,0,1,0,0-.964Z" transform="translate(-179.816 -256.473)"/>
    <path id="Path_1390" data-name="Path 1390" d="M263.061,328.12h-7.389a.482.482,0,0,0,0,.964h7.389a.482.482,0,0,0,0-.964Z" transform="translate(-179.816 -310.212)"/>
  </g>
</svg>
