<svg xmlns="http://www.w3.org/2000/svg" width="25.392" height="23.587" viewBox="0 0 25.392 23.587">
  <path id="Path_1288" data-name="Path 1288" d="M44.52-479.657a2.757,2.757,0,0,0-1.965,3.295,2.807,2.807,0,0,0,1.977,1.988c.159.04.261.08.222.08-.358.023-1.289.148-1.772.239a11.127,11.127,0,0,0-4.573,2.142,11,11,0,0,0-3.88,6.288,21.536,21.536,0,0,0-.239,4.715v2.971l-.619.023c-.523.011-.648.034-.778.136a.8.8,0,0,0-.392.761.8.8,0,0,0,.392.761l.153.119h24.3l.153-.119a.8.8,0,0,0,.392-.761.8.8,0,0,0-.392-.761c-.131-.1-.256-.125-.778-.136l-.619-.023v-2.988c0-1.647-.028-3.238-.057-3.533a10.938,10.938,0,0,0-4.857-8.026,10.991,10.991,0,0,0-5.226-1.778l-.4-.034.3-.08a2.873,2.873,0,0,0,1.693-1.278.886.886,0,0,0-.778-1.375.9.9,0,0,0-.778.454.908.908,0,0,1-.71.454.906.906,0,0,1-.915-1.255.976.976,0,0,1,.829-.545c.591-.085.875-.375.875-.909a.808.808,0,0,0-.386-.761A1.705,1.705,0,0,0,44.52-479.657Zm2.4,7.356a9.109,9.109,0,0,1,7.2,7.191,10.789,10.789,0,0,1,.148,2.051l.034,1.494H36.1l.023-1.466a10.4,10.4,0,0,1,.153-2.073,9.127,9.127,0,0,1,7.867-7.311A12.4,12.4,0,0,1,46.923-472.3Zm7.362,13.463v.909H36.107v-1.818H54.284Z" transform="translate(-32.5 479.727)" fill="#a1a1a1"/>
</svg>
