<svg xmlns="http://www.w3.org/2000/svg" width="23" height="23" viewBox="0 0 23 23">
  <g id="Group_6248" data-name="Group 6248" transform="translate(-363 -435)">
    <g id="info" transform="translate(227.519 950.784)">
      <path id="Path_1256" data-name="Path 1256" d="M243.281-511.761a1.918,1.918,0,0,0-1.45,1.234,2.018,2.018,0,0,0-.03.892,1.862,1.862,0,0,0,1.2,1.258,2.246,2.246,0,0,0,1.083.059A1.791,1.791,0,0,0,245.522-510a1.6,1.6,0,0,0-.514-1.213,1.654,1.654,0,0,0-.756-.475A2.423,2.423,0,0,0,243.281-511.761Z" transform="translate(-95.383)"/>
      <path id="Path_1257" data-name="Path 1257" d="M146.109-338.691a8.209,8.209,0,0,0-1.966.564l-.463.177-.1.416a3.575,3.575,0,0,0-.094.428,2.731,2.731,0,0,0,.337-.094,2.254,2.254,0,0,1,1.526-.044c.251.118.366.39.366.862a11.77,11.77,0,0,1-.652,2.834,13.962,13.962,0,0,0-.561,2.368,2,2,0,0,0,.534,1.819,2.431,2.431,0,0,0,1.919.629,3.356,3.356,0,0,0,1.317-.2c.466-.154,1.411-.52,1.447-.558a5.372,5.372,0,0,0,.21-.832,1.1,1.1,0,0,0-.207.062,2.6,2.6,0,0,1-1.6.1.6.6,0,0,1-.384-.354,1.078,1.078,0,0,1-.059-.531,9.581,9.581,0,0,1,.587-2.686,14.071,14.071,0,0,0,.576-2.317,2.092,2.092,0,0,0-.5-2.022,1.663,1.663,0,0,0-.475-.36A3.174,3.174,0,0,0,146.109-338.691Z" transform="translate(0 -167.96)"/>
    </g>
    <g id="Ellipse_366" data-name="Ellipse 366" transform="translate(363 435)" fill="none" stroke="#000" stroke-width="1.5">
      <circle cx="11.5" cy="11.5" r="11.5" stroke="none"/>
      <circle cx="11.5" cy="11.5" r="10.75" fill="none"/>
    </g>
  </g>
</svg>
