<svg xmlns="http://www.w3.org/2000/svg" width="27.034" height="27.029" viewBox="0 0 27.034 27.029">
  <path id="Path_1289" data-name="Path 1289" d="M11.526-510.945l-1.969.956v2.017l-.713-.713-.713-.713-2.107.7-2.112.7-.7,2.112-.7,2.107.713.713.713.713H1.917l-.961,1.98L0-498.389l.956,1.98.961,1.98H3.934l-.713.713L2.508-493l.7,2.107.7,2.112,2.112.7,2.107.7.713-.713.713-.713v2.017l1.98.961,1.98.956,1.969-.95,1.964-.945.016-1.019.011-1.014.713.708.713.713,2.107-.7,2.112-.7.7-2.112.7-2.107-.713-.713-.713-.713h2.017l.961-1.98.956-1.98-.956-1.98-.961-1.98H23.1l.713-.713.713-.713-.7-2.107-.7-2.112-2.112-.7-2.107-.7-.713.713-.713.708-.011-1.014-.016-1.019-1.964-.945c-1.082-.523-1.969-.95-1.98-.945S12.6-511.473,11.526-510.945Zm3.205,1.383,1.135.549.016,1.315.011,1.309L14.705-505.2l-1.188,1.188L12.329-505.2l-1.188-1.188.011-1.309.016-1.309,1.135-.549c.623-.3,1.172-.549,1.214-.549S14.108-509.863,14.731-509.562Zm-6.114,2.92.94.94v3.353H6.2l-.94-.94-.935-.935.4-1.188c.216-.655.412-1.22.438-1.262.032-.058,2.276-.866,2.492-.9C7.672-507.576,8.1-507.154,8.617-506.642Zm12-.512a11.127,11.127,0,0,1,1.22.444,13.023,13.023,0,0,1,.465,1.273l.4,1.214-.935.935-.94.94H17.477V-505.7l.94-.94a9.889,9.889,0,0,1,.987-.919C19.436-507.55,19.98-507.365,20.619-507.154Zm-8.5,4.541-.259.264h-.718v-1.769l.618.618.623.623Zm3.775-.607v.871h-.718l-.259-.264-.259-.264.6-.607c.333-.333.612-.607.618-.607S15.893-503.7,15.893-503.22Zm-9.187,3.643,1.188,1.188L6.706-497.2l-1.188,1.188H2.909l-.454-.94c-.253-.512-.507-1.045-.565-1.188l-.106-.248.106-.253c.058-.137.312-.671.565-1.188l.454-.935H5.518Zm2.851-.829v.359l-.264.259-.264.264-.623-.623-.618-.618H9.557Zm5.634.338.7.7v1.954l-.7.7-.7.7H12.54l-.7-.7-.7-.7v-1.954l.7-.7.7-.7h1.954Zm3.437-.079-.623.623-.264-.264-.264-.259v-.718h1.769Zm6.062.544c.3.623.544,1.172.544,1.214s-.243.591-.544,1.214l-.549,1.135-1.315.016-1.309.011L20.328-497.2l-1.188-1.188,1.188-1.188,1.188-1.188,1.309.011,1.315.016ZM9.3-496.979c.253.248.253.248.253.607v.359H7.788l.607-.607c.333-.333.618-.607.628-.607A1.829,1.829,0,0,1,9.3-496.979Zm9.335.359.607.607H17.477v-.354c0-.354,0-.359.248-.607a2.046,2.046,0,0,1,.28-.253C18.021-497.227,18.306-496.953,18.639-496.62Zm-9.082,3.87v1.674l-.94.94-.935.935-1.214-.4a13.048,13.048,0,0,1-1.273-.465,13.036,13.036,0,0,1-.465-1.273l-.4-1.214.935-.935.94-.94H9.557Zm2.561-1.415.264.264-.623.623-.618.618v-1.769h.718Zm3.775.618v.887l-.618-.618-.623-.623.264-.264.259-.264h.718Zm5.877.058.935.935-.4,1.214a13.037,13.037,0,0,1-.465,1.273,13.048,13.048,0,0,1-1.273.465l-1.214.4-.935-.935-.94-.94v-3.353H20.83Zm-7.049,1.927,1.172,1.177-.011,1.309-.016,1.31-1.135.549c-.623.3-1.172.544-1.214.544s-.591-.248-1.214-.549l-1.135-.549-.016-1.31-.011-1.3,1.172-1.177c.649-.649,1.188-1.177,1.2-1.177S14.071-492.211,14.721-491.562Z" transform="translate(0 511.901)" fill="#a1a1a1"/>
</svg>
