<svg xmlns="http://www.w3.org/2000/svg" width="24.14" height="22.611" viewBox="0 0 24.14 22.611">
  <g id="little-kid" transform="translate(-0.223 500.722)">
    <path id="Path_1284" data-name="Path 1284" d="M11.184-500.669a8.694,8.694,0,0,0-3.9,1.727.673.673,0,0,1-.4.189,6.476,6.476,0,0,0-2.256.637,5.114,5.114,0,0,0-2.869,4.228,15.9,15.9,0,0,0,.09,2.879l.085.783L1.7-490.1a2.73,2.73,0,0,0-.755,4.271,2.677,2.677,0,0,0,1.571.873l.25.052.179.448a10.206,10.206,0,0,0,5.875,5.729,10.143,10.143,0,0,0,5.96.307,9.849,9.849,0,0,0,4.6-2.633,9.932,9.932,0,0,0,2.265-3.4l.179-.448.25-.052a2.689,2.689,0,0,0,1.482-.774,2.724,2.724,0,0,0,.529-3.152,3.419,3.419,0,0,0-1.18-1.213c-.217-.113-.264-.16-.25-.236a20.869,20.869,0,0,0,.184-2.643,5.661,5.661,0,0,0-.585-2.874,7.567,7.567,0,0,0-2.765-2.945A13.778,13.778,0,0,0,14.3-500.6,15.251,15.251,0,0,0,11.184-500.669Zm-2.251,7.805c1.892,1.571,5.219,2.473,9.792,2.647.566.024,1.033.047,1.048.057s.231.769.5,1.689l.477,1.67-.1.472a8.781,8.781,0,0,1-2.449,4.341,8.506,8.506,0,0,1-9.608,1.52,8.446,8.446,0,0,1-3.969-3.964,8.655,8.655,0,0,1-.7-1.987l-.08-.387.5-1.737c.274-.953.514-1.751.533-1.765s.274-.123.557-.231a6.535,6.535,0,0,0,2.383-1.51,5.213,5.213,0,0,0,.632-.75,2.58,2.58,0,0,1,.2-.293A3.262,3.262,0,0,1,8.933-492.864Z" transform="translate(0 0)" fill="#020202"/>
    <path id="Path_1285" data-name="Path 1285" d="M140.226-255.8a1.691,1.691,0,0,0-.85.673,1.525,1.525,0,0,0-.273,1.074,1.637,1.637,0,0,0,.94,1.4,1.286,1.286,0,0,0,.732.15,1.491,1.491,0,0,0,1.25-.54,1.659,1.659,0,0,0,0-2.287A1.7,1.7,0,0,0,140.226-255.8Z" transform="translate(-132.445 -233.508)" fill="#020202"/>
    <path id="Path_1286" data-name="Path 1286" d="M310.666-255.8a1.538,1.538,0,0,0-.759.481,1.465,1.465,0,0,0-.444.85,1.727,1.727,0,0,0,.988,1.87,1.813,1.813,0,0,0,1.427-.027,1.83,1.83,0,0,0,.8-.8,1.308,1.308,0,0,0,.123-.737,1.407,1.407,0,0,0-.433-1.176A1.79,1.79,0,0,0,310.666-255.8Z" transform="translate(-294.891 -233.541)" fill="#020202"/>
    <path id="Path_1287" data-name="Path 1287" d="M187.574-148.92a.784.784,0,0,0-.427.705c-.021.363.064.518.486.882a5.154,5.154,0,0,0,3.479,1.138,5.213,5.213,0,0,0,2.811-1.063c.449-.374.588-.577.588-.882a.806.806,0,0,0-.721-.86c-.337-.037-.443.005-.844.326a3.278,3.278,0,0,1-4.146.075c-.155-.123-.347-.267-.427-.315A.939.939,0,0,0,187.574-148.92Z" transform="translate(-178.531 -335.386)" fill="#020202"/>
  </g>
</svg>
