<svg xmlns="http://www.w3.org/2000/svg" width="30.243" height="29.674" viewBox="0 0 30.243 29.674">
  <g id="noun-rosary-bead-4634396" transform="translate(-206.081 -138.806)">
    <path id="Path_1369" data-name="Path 1369" d="M246.739,213.227a1.511,1.511,0,1,0-1.07.444,1.51,1.51,0,0,0,1.07-.444Z" transform="translate(-34.078 -64.298)"/>
    <path id="Path_1370" data-name="Path 1370" d="M395.045,151.652a1.511,1.511,0,1,0-1.064-.441,1.512,1.512,0,0,0,1.064.441Z" transform="translate(-167.767 -8.791)"/>
    <path id="Path_1371" data-name="Path 1371" d="M432.348,335.269a1.512,1.512,0,1,0,1.07.441,1.51,1.51,0,0,0-1.07-.441Z" transform="translate(-201.154 -175.829)"/>
    <path id="Path_1372" data-name="Path 1372" d="M256.381,363.814c-.059-.059-.118-.124-.171-.188a.712.712,0,0,0-.312-.071.741.741,0,0,0-.529.218.754.754,0,0,0-.188.729,3.247,3.247,0,0,1,.3.271,2.591,2.591,0,0,1,.206.235.735.735,0,0,0,.735-.188.717.717,0,0,0,.218-.523.7.7,0,0,0-.071-.312Z" transform="translate(-43.919 -201.144)"/>
    <path id="Path_1373" data-name="Path 1373" d="M307.753,359.69a1.507,1.507,0,1,0,1.07.441,1.511,1.511,0,0,0-1.07-.441Z" transform="translate(-89.638 -197.685)"/>
    <path id="Path_1374" data-name="Path 1374" d="M269.221,335.692a1.517,1.517,0,0,0-.194,1.906,2.365,2.365,0,0,1,.235.194,1.42,1.42,0,0,1,.188.235,1.545,1.545,0,0,0,.841.247,1.513,1.513,0,1,0-1.07-2.582Z" transform="translate(-56.112 -175.811)"/>
    <path id="Path_1375" data-name="Path 1375" d="M210.8,376.237a1.6,1.6,0,0,1-.27-.359,1.869,1.869,0,0,0-1.006-.288,1.928,1.928,0,0,0-1.376.588,6.824,6.824,0,0,0-2.071,4.217,7.2,7.2,0,0,1,3.353-.923h.241a1.916,1.916,0,0,0,1.217-.588,1.9,1.9,0,0,0,.588-1.353,1.927,1.927,0,0,0-.282-1.017,1.8,1.8,0,0,1-.365-.276Z" transform="translate(0 -211.915)"/>
    <path id="Path_1376" data-name="Path 1376" d="M244.828,298.245a1.518,1.518,0,1,0,1.07-.442,1.512,1.512,0,0,0-1.07.442Z" transform="translate(-34.283 -142.298)"/>
    <path id="Path_1377" data-name="Path 1377" d="M457.157,297.979a1.511,1.511,0,1,0,1.07.441,1.512,1.512,0,0,0-1.07-.441Z" transform="translate(-223.356 -142.456)"/>
    <path id="Path_1378" data-name="Path 1378" d="M351.763,369.6a1.507,1.507,0,1,0,1.07.441,1.513,1.513,0,0,0-1.07-.441Z" transform="translate(-129.026 -206.554)"/>
    <path id="Path_1379" data-name="Path 1379" d="M467.845,254.783a1.512,1.512,0,0,0-2.6,1.059,1.482,1.482,0,0,0,.441,1.07,1.511,1.511,0,0,0,2.582-1.07,1.528,1.528,0,0,0-.423-1.059Z" transform="translate(-231.945 -103.383)"/>
    <path id="Path_1380" data-name="Path 1380" d="M236.293,256.811a1.511,1.511,0,1,0-1.07-.441,1.511,1.511,0,0,0,1.07.441Z" transform="translate(-25.684 -102.906)"/>
    <path id="Path_1381" data-name="Path 1381" d="M395.326,359.811a.625.625,0,1,0,0-.006Z" transform="translate(-168.024 -197.789)"/>
    <path id="Path_1382" data-name="Path 1382" d="M270.254,173.6a1.48,1.48,0,0,0-1.07.441,1.518,1.518,0,1,0,1.07-.441Z" transform="translate(-56.075 -31.139)"/>
    <path id="Path_1383" data-name="Path 1383" d="M432.293,175.831a1.512,1.512,0,1,0-1.071-.442,1.513,1.513,0,0,0,1.071.442Z" transform="translate(-201.099 -30.43)"/>
    <path id="Path_1384" data-name="Path 1384" d="M352.06,141.39a1.514,1.514,0,1,0-1.462.392A1.512,1.512,0,0,0,352.06,141.39Z" transform="translate(-128.335)"/>
    <path id="Path_1385" data-name="Path 1385" d="M308.364,151.429a1.517,1.517,0,1,0-1.235-.783A1.517,1.517,0,0,0,308.364,151.429Z" transform="translate(-90.267 -8.586)"/>
    <path id="Path_1386" data-name="Path 1386" d="M455.389,212.16a1.488,1.488,0,0,0,.447,1.082,1.506,1.506,0,1,0-.447-1.07Z" transform="translate(-223.124 -64.313)"/>
  </g>
</svg>
