<svg xmlns="http://www.w3.org/2000/svg" width="34.84" height="31.765" viewBox="0 0 34.84 31.765">
  <g id="praying" transform="translate(0 506.415)">
    <path id="Path_1292" data-name="Path 1292" d="M39.25-467.766a4.429,4.429,0,0,0-2.355,1.239,4.639,4.639,0,0,0-1.128,1.8,3.177,3.177,0,0,0-.167,1.363A3.177,3.177,0,0,0,35.767-462a4.529,4.529,0,0,0,1.487,2.113,4.428,4.428,0,0,0,6.736-1.555,3.889,3.889,0,0,0,.459-1.741c.006-.5-.074-.651-.434-.768a.646.646,0,0,0-.756.359,2.6,2.6,0,0,1-1,.93,1.678,1.678,0,0,1-.961.167,1.511,1.511,0,0,1-1.01-.211,2.223,2.223,0,0,1-1-1.053,1.762,1.762,0,0,1-.161-.936,1.545,1.545,0,0,1,.174-.93,2.382,2.382,0,0,1,.892-.967c.4-.26.508-.514.366-.861a.545.545,0,0,0-.31-.31C39.987-467.878,39.833-467.878,39.25-467.766Zm-.626,1.438a3.143,3.143,0,0,0,.347,3.755,3.06,3.06,0,0,0,2.318,1.035,3.057,3.057,0,0,0,1.853-.57c.2-.149.211-.068.019.31a3.626,3.626,0,0,1-2.051,1.723,2.953,2.953,0,0,1-1.115.174,3.219,3.219,0,0,1-2.578-1.128,3.5,3.5,0,0,1,.4-5.081,4.013,4.013,0,0,1,.979-.57C38.816-466.682,38.742-466.521,38.624-466.329Z" transform="translate(-33.162 -36.988)" fill="#8f8f8f"/>
    <path id="Path_1293" data-name="Path 1293" d="M21.911-465.87a3.1,3.1,0,0,0-1.878,1.5,42.27,42.27,0,0,0-1.225,4.583,2.963,2.963,0,0,0,.925,2.4,3.343,3.343,0,0,0,1.722.954l.49.13v2.436c0,1.338-.02,2.463-.048,2.491a21.427,21.427,0,0,1-2.1-.72c-1.123-.425-2.15-.789-2.273-.81-.245-.041-.851.2-.851.336,0,.089-.388.021-.871-.165a2.941,2.941,0,0,1-.966-.714,3.721,3.721,0,0,0-.783-.618.92.92,0,0,0-.81.336c-.122.172-.143.288-.143,1.063s.02.906.15,1.153a11.455,11.455,0,0,0,1.279,1.372l1.13,1.091,3.11,1.173A25.52,25.52,0,0,1,21.9-446.6c.014.055-.061.165-.163.247-.177.144-.225.144-3.375.144-3.028,0-3.212.007-3.6.137a2.721,2.721,0,0,0-1.232.8c-.68.734-.8,1.249-.8,3.348,0,.83.034,1.695.068,1.921a3.058,3.058,0,0,0,1.626,2.182l.449.22,5.308.021,5.308.014.544.583.544.583H27.5c.891,0,.939-.007,1.13-.172a.945.945,0,0,0,.34-.878l-.027-.288.476-.233a3.852,3.852,0,0,0,1.585-1.585,4.053,4.053,0,0,0,.429-1.489v-.226h.531c.606,0,.783.089.891.432.082.261.959,4.913.959,5.084a.659.659,0,0,1-.2.322l-.2.2H1.415l-.2-.2a.673.673,0,0,1-.2-.329c0-.24.946-5.091,1.014-5.228a.7.7,0,0,1,.211-.213c.082-.041,1.62-.069,4.416-.069h4.287l.184-.158a.491.491,0,0,0,.034-.748c-.15-.117-.381-.123-4.512-.123-3.144,0-4.437.021-4.627.082a1.805,1.805,0,0,0-.959.864C.953-441.066,0-436.105,0-435.8a1.853,1.853,0,0,0,.987,1.475c.259.124.905.13,16.433.13s16.175-.007,16.433-.13a1.853,1.853,0,0,0,.987-1.475c0-.3-.953-5.263-1.068-5.544a1.805,1.805,0,0,0-.959-.864,3.525,3.525,0,0,0-.817-.082h-.551l-.027-4.275c-.027-4.686-.034-4.748-.49-6.12-.823-2.477-2.661-4.59-4.491-5.18a3.2,3.2,0,0,1-.313-.11,2.006,2.006,0,0,1,.313-.576A9.819,9.819,0,0,0,27.559-462a2.974,2.974,0,0,0-.857-2.559c-.463-.467-.735-.59-2.3-1.029A4.16,4.16,0,0,0,21.911-465.87Zm2.225,1.269c1.395.384,1.524.439,1.864.81a1.837,1.837,0,0,1,.531,1.029c.068.357-.034,1.118-.143,1.118-.088,0-2.361-.666-5.512-1.619-.163-.048-.157-.178.048-.57a1.985,1.985,0,0,1,1.191-1.043A3.984,3.984,0,0,1,24.136-464.6Zm-.749,3.17c1.524.453,2.776.83,2.783.837a4.048,4.048,0,0,1-.143.508,3.789,3.789,0,0,1-4.1,2.69,2.25,2.25,0,0,1-1.892-1.262c-.286-.638-.279-.851.082-2.3a4.594,4.594,0,0,1,.415-1.3C20.577-462.261,21.863-461.89,23.388-461.43Zm2.3,4.419a4.6,4.6,0,0,1,2.354,1.455,8.586,8.586,0,0,1,2.28,4.775,52.773,52.773,0,0,1,.082,5.42l-.02,4.748-.225.46a2.73,2.73,0,0,1-1.164,1.249,2.369,2.369,0,0,1-.408.178,3.766,3.766,0,0,1-.388-.844c-.531-1.365-.953-1.688-2.286-1.75-.7-.027-.728-.034-.769-.2a.975.975,0,0,0-.517-.645c-.245-.124-.415-.13-2.681-.13H19.529v-2.868l1.177-.027c1.13-.021,1.184-.027,1.483-.206a1.66,1.66,0,0,0,.708-.885c.041-.158.088-.185.395-.22a2.291,2.291,0,0,0,1.674-1.036,12.484,12.484,0,0,0,.959-2.552.48.48,0,0,0-.415-.473c-.32-.082-.5.172-.912,1.3-.422,1.153-.578,1.407-1.007,1.612-.551.268-.674.24-3.872-.961-1.62-.611-2.974-1.139-3.008-1.166a11.41,11.41,0,0,1,.7-2.065c.02-.021,1.1.357,2.382.844,2.382.9,2.531.94,2.749.693.054-.069.415-.967.8-2,.755-2.045.885-2.271,1.375-2.408a1.168,1.168,0,0,1,1.279.5,1.5,1.5,0,0,1-.034,1.29,2.437,2.437,0,0,0-.17.611.545.545,0,0,0,.476.487c.3,0,.456-.178.674-.789a2.213,2.213,0,0,0-.34-2.463,1.883,1.883,0,0,0-1.558-.686,2.012,2.012,0,0,0-1.844,1.05l-.2.309v-1.935l.5-.11a5.116,5.116,0,0,0,1-.377A1.356,1.356,0,0,1,25.688-457.012Zm-10.445,5.077a5.862,5.862,0,0,0,.694.3l.252.082-.2.563c-.116.309-.211.57-.225.576s-.388-.343-.844-.789l-.83-.8v-.72l.354.281A6.191,6.191,0,0,0,15.242-451.934Zm3.266,8.2v1.441h-.646c-.558,0-.667.021-.783.137a.516.516,0,0,0,.041.748c.177.144.245.144,3.606.144h3.43v2.676H15.208l-.34-.165a1.894,1.894,0,0,1-.932-.967c-.15-.329-.157-.412-.157-2.161s.007-1.832.157-2.161a1.826,1.826,0,0,1,.653-.81c.4-.288.612-.316,2.307-.322h1.613Zm8.193,3.6a.962.962,0,0,1,.272.3c.088.172.925,2.333.925,2.388a2.013,2.013,0,0,1-.456.027l-.463-.007-.435-.515c-.47-.563-.606-.645-1.068-.645h-.3v-.81a3.628,3.628,0,0,1,.054-.865A3.363,3.363,0,0,1,26.7-440.14Z" transform="translate(0 -40.452)" fill="#8f8f8f"/>
    <path id="Path_1294" data-name="Path 1294" d="M362.643-171.907a.444.444,0,0,0-.118.576,12.677,12.677,0,0,0,1.041,1.109c.88.868.973.948,1.184.948a.379.379,0,0,0,.347-.161c.254-.328.211-.4-.911-1.524-.88-.886-1.066-1.041-1.227-1.041A.673.673,0,0,0,362.643-171.907Z" transform="translate(-337.594 -313.955)" fill="#8f8f8f"/>
    <path id="Path_1296" data-name="Path 1296" d="M58.837-91.913c-.4.174-.49.366-.669,1.469-.093.558-.167,1.122-.167,1.252a.822.822,0,0,0,.39.725c.186.118.328.124,2.863.124s2.677-.006,2.863-.124c.4-.242.421-.328.421-1.673,0-1.363-.031-1.487-.465-1.729-.229-.124-.31-.13-2.64-.13A15,15,0,0,0,58.837-91.913Zm4.79,1.754.019.886H61.284c-1.3,0-2.355-.019-2.355-.05,0-.087.248-1.593.279-1.673a9.021,9.021,0,0,1,2.212-.062l2.188.019Z" transform="translate(-54.406 -388.165)" fill="#8f8f8f"/>
  </g>
</svg>
