<svg xmlns="http://www.w3.org/2000/svg" width="27.137" height="27.505" viewBox="0 0 27.137 27.505">
  <g id="_12_time-512" data-name="12_time-512" transform="translate(-32.5 485.722)">
    <path id="Path_1298" data-name="Path 1298" d="M44.12-485.574a3.083,3.083,0,0,0-1.218,1.716,3.6,3.6,0,0,0,0,1.277,3.018,3.018,0,0,0,1.4,1.816l.351.187v.855l-.363.041a11.262,11.262,0,0,0-8.188,5.1,11.8,11.8,0,0,0-1.493,3.672l-.1.5-.726.023c-.779.018-.89.059-1.16.422-.117.158-.123.228-.123,2.378s.006,2.22.123,2.378c.258.351.392.4,1.078.422l.638.023.018,2.975c.018,2.9.023,2.981.141,3.139a1.6,1.6,0,0,0,.281.281c.158.123.176.123,8.984.141,9.8.018,9.523.023,10.712-.369a6.967,6.967,0,0,0,2.952-1.839,6.916,6.916,0,0,0,1.493-2.079,7.5,7.5,0,0,0-.58-7.415,9.423,9.423,0,0,0-1.71-1.786,1,1,0,0,1-.469-.662,11.885,11.885,0,0,0-3.04-4.539,11.3,11.3,0,0,0-6.284-2.823l-.31-.041v-.726l.322-.105a3.813,3.813,0,0,0,1.435-.984.917.917,0,0,0-.328-1.546.681.681,0,0,0-.545-.029,1.908,1.908,0,0,0-.486.211,2.7,2.7,0,0,1-1.183.381,3.445,3.445,0,0,1-.574-.064,1.342,1.342,0,0,1-.955-.961,3.387,3.387,0,0,1,.082-1.728,1.783,1.783,0,0,0,.1-.392A1.238,1.238,0,0,0,44.12-485.574Zm3.11,7.825a10.181,10.181,0,0,1,1.985.58l.445.187-.34.035a.874.874,0,0,0-.89.931.827.827,0,0,0,.4.785c.152.117.252.123,1.81.141l1.652.023.351.4a12.384,12.384,0,0,1,1.142,1.634.825.825,0,0,1-.363-.035,7.3,7.3,0,0,0-2.319-.059A7.368,7.368,0,0,0,46.879-471l-.615.609H36.407l.047-.193c.023-.1.076-.31.117-.463l.07-.275,1.365-.018c1.505-.018,1.517-.023,1.81-.422a1.06,1.06,0,0,0,0-1.007c-.281-.381-.357-.4-1.376-.422a5.18,5.18,0,0,1-.931-.064,2.854,2.854,0,0,1,.281-.451l.275-.4,2.53-.029c2.436-.029,2.536-.035,2.688-.152a.827.827,0,0,0,.4-.785.827.827,0,0,0-.4-.785c-.152-.117-.264-.123-1.722-.152L40-476.045l.439-.293a10.066,10.066,0,0,1,4.053-1.493A13.858,13.858,0,0,1,47.23-477.749Zm5.874,6.507a5.674,5.674,0,0,1,4.5,4.182,6.789,6.789,0,0,1,0,2.706A5.73,5.73,0,0,1,53.4-460.22a7.5,7.5,0,0,1-2.507,0,5.808,5.808,0,0,1-2.63-1.441,5.609,5.609,0,0,1-.908-6.976A5.636,5.636,0,0,1,53.1-471.242Zm-16.885,3.661v.937H34.345v-1.874h1.874Zm5.623,0v.937H38.093v-1.874h3.748Zm3.338-.9a2,2,0,0,1-.111.34,10.414,10.414,0,0,0-.334,1.359c-.023.129-.053.135-.521.135h-.5v-1.874h.732A3.25,3.25,0,0,1,45.18-468.478Zm-6.15,6.05v2.343H36.219v-4.685H39.03Zm5.74-2.009a7.375,7.375,0,0,0,2.015,3.93l.4.422H45.6l-.023-.638c-.012-.539-.035-.668-.141-.8a.827.827,0,0,0-.785-.4.827.827,0,0,0-.785.4c-.105.135-.129.264-.141.8l-.023.638H40.9v-4.685h3.8Z" fill="#a1a1a1"/>
    <path id="Path_1299" data-name="Path 1299" d="M240.742-319.82a.927.927,0,0,0-.269,1.505.927.927,0,0,0,1.564-.855A.952.952,0,0,0,240.742-319.82Z" transform="translate(-195.533 -156.114)" fill="#a1a1a1"/>
    <path id="Path_1300" data-name="Path 1300" d="M338.045-223.621a.994.994,0,0,0-.492.521,7.62,7.62,0,0,0-.064,1.329v1.16l-.146.094a1.807,1.807,0,0,0-.609.738,1.41,1.41,0,0,0-.146.791,1.681,1.681,0,0,0,.972,1.611,1.357,1.357,0,0,0,.884.2l.51.006.925.914c.99.984,1.1,1.048,1.575.955a1.023,1.023,0,0,0,.691-.691c.094-.48.029-.586-.955-1.581l-.914-.92-.006-.486a1.787,1.787,0,0,0-.75-1.546l-.152-.117-.018-1.236c-.018-1.347-.029-1.382-.41-1.669A1.086,1.086,0,0,0,338.045-223.621Z" transform="translate(-286.276 -246.691)" fill="#a1a1a1"/>
  </g>
</svg>
