<svg xmlns="http://www.w3.org/2000/svg" width="21.281" height="24.917" viewBox="0 0 21.281 24.917">
  <g id="Group_6255" data-name="Group 6255" transform="translate(-14994.049 -1055.046)">
    <path id="Path_1260" data-name="Path 1260" d="M121.528,1.968c2.857.946,5.789,2.06,8.3,3.032a42.348,42.348,0,0,1,.459,5.465,24.285,24.285,0,0,1-.281,4.7,6.929,6.929,0,0,1-1.29,2.305,18.763,18.763,0,0,1-3.116,2.986l0,0a27.822,27.822,0,0,1-4.066,2.649,27.706,27.706,0,0,1-4.063-2.646l0,0a18.7,18.7,0,0,1-3.113-2.985,7.118,7.118,0,0,1-1.257-2.2c-.006-.023-.012-.046-.019-.069a18.224,18.224,0,0,1-.363-4.923,29.44,29.44,0,0,1,.54-5.3c2.5-.968,5.423-2.077,8.278-3.02m0-1.874a1.385,1.385,0,0,0-.436.071c-2.8.92-5.67,2-8.589,3.13a1.942,1.942,0,0,0-.936.777,26.5,26.5,0,0,0-.705,6.178c-.062,4.252.467,5.525.45,5.527a8.819,8.819,0,0,0,1.591,2.851,20.6,20.6,0,0,0,3.422,3.29,28.7,28.7,0,0,0,4.584,2.949,1.4,1.4,0,0,0,.62.145h0a1.4,1.4,0,0,0,.621-.146,28.748,28.748,0,0,0,4.586-2.952,20.649,20.649,0,0,0,3.423-3.291,8.577,8.577,0,0,0,1.649-3.048,24.142,24.142,0,0,0,.325-5.14,43.25,43.25,0,0,0-.56-6.218,1.944,1.944,0,0,0-1.016-.915c-2.92-1.131-5.791-2.212-8.591-3.135a1.4,1.4,0,0,0-.437-.071Z" transform="translate(14883.193 1054.952)"/>
    <path id="Path_1261" data-name="Path 1261" d="M279.8,183.476a2,2,0,0,1-2-2v-1.559a3.271,3.271,0,1,1,3.992-.046v1.6a2,2,0,0,1-2,2Zm-.03-7.59a1.421,1.421,0,0,0-.631,2.695.924.924,0,0,1,.513.828v2.071a.148.148,0,0,0,.147.147.146.146,0,0,0,.146-.146v-2.1a.925.925,0,0,1,.49-.816,1.421,1.421,0,0,0-.666-2.677Z" transform="translate(14724.917 888.748)"/>
  </g>
</svg>
