<svg xmlns="http://www.w3.org/2000/svg" xmlns:xlink="http://www.w3.org/1999/xlink" width="290" height="288" viewBox="0 0 290 288">
  <defs>
    <clipPath id="clip-path">
      <rect id="Rectangle_5451" data-name="Rectangle 5451" width="290" height="288" rx="61" transform="translate(2 0)" fill="#fff"/>
    </clipPath>
  </defs>
  <g id="Group_6391" data-name="Group 6391" transform="translate(-62 -322)">
    <g id="Group_6388" data-name="Group 6388" transform="translate(620 473.823)">
      <rect id="Rectangle_5450" data-name="Rectangle 5450" width="288" height="288" rx="58" transform="translate(-558 -151.823)" fill="#25b99a"/>
      <g id="Mask_Group_8" data-name="Mask Group 8" transform="translate(-560 -151.823)" clip-path="url(#clip-path)">
        <path id="Path_1352" data-name="Path 1352" d="M43.724,401.1S199.242,254.984,332.2,456.532s-.514,91.919-.514,91.919-2.278,35.05-43.274,43.78-201.56,0-201.56,0-39.865-8.478-43.155-44.666S43.724,401.1,43.724,401.1Z" transform="translate(-40.554 -303.772)" fill="#22a184" opacity="0.66"/>
        <path id="Path_1353" data-name="Path 1353" d="M119.467,294.218s-9.174,40.351-5.56,59.255S130.1,545.662,342.031,513.292s.729-174.38.729-174.38.493-34.05-43.262-44.249S119.467,294.218,119.467,294.218Z" transform="translate(-51.452 -293.549)" fill="#21967a" opacity="0.38"/>
        <path id="Path_1354" data-name="Path 1354" d="M241.376,294.627s-5.077,26.4,0,51.706,24.369,84.952,63.974,110.386,57.32,30.621,57.32,30.621l.126-148.55s-4.555-37.327-41.756-43.274S241.376,294.627,241.376,294.627Z" transform="translate(-71.028 -294.47)" fill="#21967a" opacity="0.42"/>
      </g>
    </g>
    <g id="Group_6389" data-name="Group 6389" transform="translate(60.099 85)">
      <path id="Path_1350" data-name="Path 1350" d="M247.376,40.332a58.279,58.279,0,0,1,1.994,13.735v.814c.422.843.841,1.236,1.236,1.236h1.209c.785-.422,1.151-.843,1.151-1.236q6.11-4.34,6.094-14.971V35.137L254.2,14.157h.422l-.422-2.864v-.758c.448-.814.87-1.236,1.236-1.236q3.541,0,10.449,8.062c3.681,6.264,5.842,9.494,6.519,9.717h.419c.477,0,.732-.281.732-.814,0-2.729.422-3.333.422-6.094V16.546a25.417,25.417,0,0,0-.422-4.858Q269.929.012,257.432,0c-3.344,0-5.646,3.623-6.826,10.868.252,5.169.533,7.837.814,8.062,3.737,11.234,5.591,18,5.591,20.251,0,4.774-.788,7.582-2.39,8.481H254.2c-.366,0-1.177-3.933-2.387-11.77-4.548-10.224-8.847-15.308-12.891-15.308-1.658,0-3,1.74-4.044,5.251.278,2.36.419,3.848.419,4.437,0,6.712,2.275,10.054,6.826,10.054.135,14.078-31.485,36.525-42.382,38.759,14.687-1.423,47-25.1,47.633-38.759Z" transform="translate(-109.479 290)" fill="#fff"/>
      <path id="Path_1351" data-name="Path 1351" d="M228.94,96.27c-2.079,2.041-28.524,32.114-53.853,49.021-45.972,30.694-75.1,6.657-48.022-40.247-18.951,21.777-33.883,48.731-16.409,66.9,9.919,10.311,27.467,10.3,52.9-6.686,25.329-16.909,51.771-46.98,53.853-49.024a16.226,16.226,0,0,0,2.855,7.685l-7.043,11.946c-18.154,31.441,47.727,48.822,34.507,72.306l2.492-4.317.02-.035,1.731-2.882L263.5,180.972c30.729-53.226-32.595-60.656-34.566-84.7ZM260.3,176.638c-5.892-15.354-38.478-27.306-37.816-49.832C234.193,140.26,261.83,150.835,260.3,176.638Z" transform="translate(-41 221.923)" fill="#fff"/>
      <g id="Group_6385" data-name="Group 6385" transform="translate(61.909 321.959)" opacity="0.2">
        <path id="Path_1334" data-name="Path 1334" d="M382.435,229.07c-1.83,1.491-3.678,2.952-5.535,4.364l1.871,8.917c3.485-3.075,6.835-6.176,9.978-9.181Z" transform="translate(-296.666 -193.945)" fill="#fff"/>
        <path id="Path_1335" data-name="Path 1335" d="M217.783,321.687c6.873-1.561,14.76-4.976,23.663-10.551L236.174,299.5a59.926,59.926,0,0,1-6.865,2.047l-11.53,20.137Z" transform="translate(-184.145 -243.749)" fill="#fff"/>
        <path id="Path_1336" data-name="Path 1336" d="M323.23,270.123q-3.418,2.144-6.7,3.88V286.9c4.7-3.251,9.412-6.914,13.984-10.733l-7.283-6.045Z" transform="translate(-253.976 -222.973)" fill="#fff"/>
        <path id="Path_1337" data-name="Path 1337" d="M476.12,130.918c2.873-3.066,4.724-5.113,5.216-5.594a14.387,14.387,0,0,0,.9,3.945L499.8,117.942A26.265,26.265,0,0,1,494.04,110l-4.689-.867c-2.967,3.2-7.585,8.1-13.231,13.714Z" transform="translate(-366.829 -109.13)" fill="#fff"/>
        <path id="Path_1338" data-name="Path 1338" d="M152.35,328.278l3.251-19.507a27.91,27.91,0,0,1-5.107-.671L128.93,321.583c.047.05.091.1.138.146,5.447,5.661,13.193,8.209,23.282,6.545Z" transform="translate(-121.315 -249.831)" fill="#fff"/>
        <path id="Path_1339" data-name="Path 1339" d="M606.362,348.253l-2.767-5.427c-.006.123-.009.243-.015.366-1.514-3.942-4.788-7.661-8.806-11.392l-6.434,25.733c4.255,5.555,6.059,11.169,2.674,17.188l2.492-4.317.021-.035,1.731-2.882,11.105-19.235Z" transform="translate(-446.185 -266.59)" fill="#fff"/>
        <path id="Path_1340" data-name="Path 1340" d="M119.068,274.07l-16.087,2.58a26.853,26.853,0,0,0,5.582,18.57L122,278.375A18.352,18.352,0,0,1,119.068,274.07Z" transform="translate(-102.929 -225.766)" fill="#fff"/>
        <path id="Path_1341" data-name="Path 1341" d="M118.8,210.243l-7.828.22a58.8,58.8,0,0,0-6.012,16.523l13.152-8.871a40.731,40.731,0,0,1,.691-7.875Z" transform="translate(-104.365 -180.629)" fill="#fff"/>
        <path id="Path_1342" data-name="Path 1342" d="M636.39,333.92a30.626,30.626,0,0,1,1.157,6.639l6.419,2.381q.777-1.639,1.426-3.216Z" transform="translate(-480.163 -268.089)" fill="#fff"/>
        <path id="Path_1343" data-name="Path 1343" d="M546.043,319.987,562.809,304.8c-3.588-3.245-7.676-6.513-11.606-9.96l-6.733,23.753Q545.261,319.292,546.043,319.987Z" transform="translate(-415.162 -240.454)" fill="#fff"/>
        <path id="Path_1344" data-name="Path 1344" d="M500.4,285.732l16.707-14.414a74.918,74.918,0,0,1-7.564-7.737l-11.038,20.1q.918,1.032,1.9,2.05Z" transform="translate(-382.662 -218.348)" fill="#fff"/>
        <path id="Path_1345" data-name="Path 1345" d="M605.24,276.439a40.848,40.848,0,0,1,7.758,11.4l14.11-8.765a31.113,31.113,0,0,0-.6-5l-21.267,2.366Z" transform="translate(-458.136 -225.766)" fill="#fff"/>
        <path id="Path_1346" data-name="Path 1346" d="M486.751,234.645a30.121,30.121,0,0,1-4.481-8.695L469.3,234.2a19.353,19.353,0,0,0-.48,3.5Z" transform="translate(-361.667 -191.739)" fill="#fff"/>
        <path id="Path_1347" data-name="Path 1347" d="M487.187,168.772a19.631,19.631,0,0,0,1.608,2.908l-6.165,10.458,9.052-1.379a22.762,22.762,0,0,1-.673-6.188,67.993,67.993,0,0,0,8.9,8.13l17.211-15.524c-1.458-1.136-2.908-2.252-4.317-3.356l-25.616,4.952Z" transform="translate(-371.433 -147.804)" fill="#fff"/>
        <path id="Path_1348" data-name="Path 1348" d="M436.24,190.215c3.6-3.573,6.78-6.865,9.395-9.617l-3.716-4.648c-1.7,1.625-3.467,3.28-5.28,4.94l-.4,9.325Z" transform="translate(-338.628 -156.381)" fill="#fff"/>
        <path id="Path_1349" data-name="Path 1349" d="M560.572,224.546l14.154-17.278c-1.04-1.133-2.132-2.232-3.259-3.3L545.3,211.942c4.99,3.924,10.484,7.966,15.272,12.6Z" transform="translate(-415.749 -176.196)" fill="#fff"/>
      </g>
    </g>
    <g id="Group_6390" data-name="Group 6390" transform="translate(0 3)">
      <path id="Union_1" data-name="Union 1" d="M20.138,66.115l1.133-1.969,2.758,1.77L25.2,64.041,28,65.727l-1.178,2-2.773-1.77-1.136,1.829Zm194.293-4.3,1.268-2.208,3.118,2-1.283,2.074Zm4.387-.209,1.313-2.118,3.147,1.879-1.327,2.238Zm-43.13.642a13.674,13.674,0,0,1-1.127-1.1,21.016,21.016,0,0,1-1.409-1.708,2.77,2.77,0,0,0,.791.522,7.417,7.417,0,0,0,1.417.508,12.408,12.408,0,0,0,1.433.3,10.753,10.753,0,0,0,1.164.1q4.833,0,7.578-5.206a1.689,1.689,0,0,0,.194-.761q0-2.029-3.014-4.148l1.3-2.819a8.153,8.153,0,0,1,2.954,4.7h34.462q.239,0,.239-.4a2.975,2.975,0,0,0-.186-.859,9.166,9.166,0,0,0-.455-1.111,7.318,7.318,0,0,0-.559-.969q-.292-.417-.5-.418l1.358-3.148A9.34,9.34,0,0,1,223.01,49a11.4,11.4,0,0,1,.7,3.64h6.564q5.252,0,5.744-.358a6.363,6.363,0,0,0,.9-1.79,17.668,17.668,0,0,1,.858-1.872,6.571,6.571,0,0,1,.821-1.216,2.576,2.576,0,0,1,.858-.664,2.337,2.337,0,0,1,.969-.2q1.671,0,3.089,2.611a13.4,13.4,0,0,1,.962,2.2,5.783,5.783,0,0,1,.306,1.962,2.157,2.157,0,0,1-2.447,2.432,10.339,10.339,0,0,1-3.088-.6,6.07,6.07,0,0,1-2.67-1.432,2.431,2.431,0,0,1-2.6,1.79H187.146a7.818,7.818,0,0,1-2.536,5.46,7.486,7.486,0,0,1-5.371,2.625A5.419,5.419,0,0,1,175.688,62.251ZM239.6,49.37a4.939,4.939,0,0,0-.776.589,4.76,4.76,0,0,0-.642.716,1.177,1.177,0,0,0-.268.656c0,.09.074.194.223.313a3.621,3.621,0,0,0,.582.366q.358.186.79.365t.85.313c.278.089.537.164.776.223a2.487,2.487,0,0,0,.581.09q1.195,0,1.194-.716a2.419,2.419,0,0,0-.262-1.03,5.449,5.449,0,0,0-.634-1.029,3.68,3.68,0,0,0-.835-.791,1.6,1.6,0,0,0-.9-.313A1.381,1.381,0,0,0,239.6,49.37ZM75.9,61.536l1.3-2.343,3.431,1.955L79.26,63.49ZM21.2,62.669a7.33,7.33,0,0,1-2.231-1.148,5.366,5.366,0,0,1-1.491-1.768,4.845,4.845,0,0,1-.545-2.29,13.136,13.136,0,0,1,1.357-5.3q1.149-2.552,1.537-2.552h.014l.045.134c-.08.238-.206.59-.381,1.052s-.338.972-.492,1.529-.293,1.121-.418,1.693a7.47,7.47,0,0,0-.186,1.574q0,4,5.207,4a17.041,17.041,0,0,0,3.67-.537q3.132-.478,3.133-1.1,0-.224-1.671-.895A8.675,8.675,0,0,1,26.2,55.6a1.111,1.111,0,0,1-.045-.328q0-.178.03-.686,1.014-3.58,2.992-4.93a6.4,6.4,0,0,1,3.185-1.365,1.947,1.947,0,0,1,1.432.813q.7.813,1.715,1.925a5.183,5.183,0,0,0,1.671,1.364,3.268,3.268,0,0,0,1.156.254H80.558q.239,0,.239-.4a2.952,2.952,0,0,0-.187-.859,9.161,9.161,0,0,0-.454-1.111,7.219,7.219,0,0,0-.56-.969q-.29-.417-.5-.418l1.357-3.148A9.324,9.324,0,0,1,82.14,49a11.4,11.4,0,0,1,.7,3.64h34.3q.239,0,.239-.4a2.952,2.952,0,0,0-.187-.859,9.161,9.161,0,0,0-.454-1.111,7.22,7.22,0,0,0-.56-.969q-.29-.417-.5-.418l1.357-3.148A9.31,9.31,0,0,1,118.72,49a11.379,11.379,0,0,1,.7,3.64h4.207V39.128l-.79-3.074,2.625-2.625.224,3.074,1.4,1.477-1.223,2.476V55.046l-.761.463H39.458q-.821.015-1.536-.03a3.55,3.55,0,0,1-1.478-.463,18.59,18.59,0,0,1-3.192-3.3,1.685,1.685,0,0,0-1.939-.567q-2.7,1.358-3,2.477,0,.358,2.865,1.4a15.47,15.47,0,0,1,2.223.9l.3.969-.284,2.223q-.089.626-3.013,2.282a13.913,13.913,0,0,1-6.445,1.686A8.844,8.844,0,0,1,21.2,62.669ZM146.492,52.2a4.979,4.979,0,0,1,.626-2.387q.209-.389,1.418-2.029a11.6,11.6,0,0,0-.642,2.894q0,2.461,3.387,3.253a14.654,14.654,0,0,0,2.156.291q1.32.1,3.155.1,1.045,0,2.261-.068t2.663-.216q3.968-.389,3.968-1.149a5.577,5.577,0,0,0-1.477-2.745l1.372-3a9.389,9.389,0,0,1,1.6,4.864q0,2.746-1.058,3.581a4.182,4.182,0,0,1-1.4.581q-1,.269-2.61.552-1.567.254-3.007.381t-2.8.127Q146.493,57.224,146.492,52.2Zm26.078-16.038,2.253-2.73V52.315l-2.253,3.193Zm-39.931,0,2.253-2.73V52.315l-2.253,3.193Zm18.985,9,1.238-2.357,3.268,1.954-1.283,2.387Zm4.506-.4,1.163-2.223,3.357,1.984-1.178,2.223Zm-3.879-4.073,1.3-2.387L157,40.216l-1.358,2.507ZM112.9,40.142l1.3-2.342,3.431,1.954L116.258,42.1ZM12.555,30.659a3.736,3.736,0,0,1-.708-2.388,2.832,2.832,0,0,1,.13-.839h-.231a2.586,2.586,0,0,1-2.011-.955q-.3-.491-.622-.984-.391,1.939-.9,1.939-.579-.362-1.476-.824-1.345,1.91-5.28,1.91A3.437,3.437,0,0,1-1.376,27.3q-.333-.666-.695-1.331l-.477.68a1.81,1.81,0,0,1-1.274.391,3.038,3.038,0,0,1-1.012-.2q-.724-.231-.723-.593,0-.825,1.475-1.765Q-3.3,23.99-2.5,23.468c0-.2.005-.5.014-.883q.03-.81.247-.81c.076,0,.149.261.217.781q.651,4.37,3.949,4.37a8.115,8.115,0,0,0,3.848-.811l1.2-.868.579.3a2.187,2.187,0,0,0,.868.3q.319,0,.319-.665,0-1.143-.419-5.136l-.391-3.761q.2-1.577.361-1.577a2.922,2.922,0,0,1,.188,1.027q.564,5.542.941,7.292.405,1.866,1.244,2.271a1.8,1.8,0,0,1-.043-.405,4.478,4.478,0,0,1,.68-2.156Q12.064,21.4,12.96,21.4a2.748,2.748,0,0,1,1.259.449q.78.448.651.665c.019-.039-.178-.082-.593-.13a3.743,3.743,0,0,0-1.9.376q-.78.377-.882.68a1.832,1.832,0,0,0,.318,1.2q.506.969,1.23.969,1.185,0,3.081-1.881c.059,0,.087.039.087.116a3.233,3.233,0,0,1-1.65,2.5,5.766,5.766,0,0,1-2.083,1.013v.159A2.408,2.408,0,0,0,13.626,29.6a2.478,2.478,0,0,0,1.287.536,9.079,9.079,0,0,0,2.865-.608,4.751,4.751,0,0,0,2.416-1.446,3.007,3.007,0,0,0-1.244-.174q-1.288,0-1.317.014-.752-.073-.752-.405a3.952,3.952,0,0,1,.188-.557,2.449,2.449,0,0,0,.188-.832q0-1.071-.882-6.583a2.026,2.026,0,0,1-1.114-.883l-.391-.737q-.738,1.1-1.5,1.1a4.081,4.081,0,0,1-.984-.13q-.724-.217-.723-.55,0-.622,1.33-1.664a4.317,4.317,0,0,1,1.534-.955,7.947,7.947,0,0,0,.1-1.461q.072-.521.2-.521.159,0,.159.434,0,2.72,1.157,3.545-.073-.622-.073-.608,0-1.866.3-1.866.13,0,.246.752.1.666.274,2.025a5.694,5.694,0,0,0,1.476.159,5.9,5.9,0,0,0,2.256-.463q.767-.333.709-.926,0-.2-.412-2.619t-.47-2.546q-.232-1.056-.232-1.128a4.764,4.764,0,0,1,.145-.912c.1-.424.169-.636.217-.636.077,0,.121.086.131.26a.882.882,0,0,0,.145.521,2.114,2.114,0,0,1,.593.347.712.712,0,0,1,.086.391A11.489,11.489,0,0,1,21.25,12a19.077,19.077,0,0,0,.318,2.395q.362,2.264.362,2.48a2.559,2.559,0,0,1-.593,1.91,4.731,4.731,0,0,1-3.327.955q-.651,0-.912-.029a12.636,12.636,0,0,0,.752,3.443q.666,1.143,1.519,1.143t2.286-1.461q.028,0,.708.434a4.06,4.06,0,0,0,1.028.521l.058-.044a14.486,14.486,0,0,1,1.794-1.417,5.285,5.285,0,0,1,2.329-1.157,3.361,3.361,0,0,1,1.258.231q.767.319.767.912a2.54,2.54,0,0,1-.738,1.736q-1.287,1.447-4.426,1.446A7.654,7.654,0,0,1,23,25.378a3.418,3.418,0,0,0-.637.984.227.227,0,0,1-.231.174c-.086,0-.131-.059-.131-.174a2.817,2.817,0,0,1,.435-1.114,1.519,1.519,0,0,1-.81-.579l-.247-.535-.708.955a1.877,1.877,0,0,1-1.562.84,1.728,1.728,0,0,1-1.389-.594,3.461,3.461,0,0,1-.188,1.345,3.593,3.593,0,0,0,1.345.232c.116,0,.283-.007.5-.022s.383-.022.5-.022a.833.833,0,0,1,.751.29.973.973,0,0,1,.116.491,2.308,2.308,0,0,1-.521,1.534,5.64,5.64,0,0,1-2.054,1.577,7.457,7.457,0,0,1-3.415.926A2.6,2.6,0,0,1,12.555,30.659ZM-3.3,25.117c-.212.155-.318.265-.318.333,0,.087.193.125.578.116a1.436,1.436,0,0,0,.767-.159q.217-.159-.086-1.215A4.425,4.425,0,0,1-3.3,25.117ZM24.635,23.83l-.13.072a3.36,3.36,0,0,0,.636.043,10.789,10.789,0,0,0,1.809-.289q1.446-.319,1.446-.55,0-.173-.535-.362a2.25,2.25,0,0,0-.68-.159A3.887,3.887,0,0,0,24.635,23.83ZM13.987,16.959c-.279.279-.419.463-.419.549,0,.068.179.087.536.059q.564-.073.608-.2l-.159-1.042A3.534,3.534,0,0,1,13.987,16.959ZM2.877,30.614l.767-1.5,1.345.665.637-1.186,1.577.883L6.537,30.89l-1.389-.666-.622,1.187Zm18.43.478a7.458,7.458,0,0,1,.868-.521,11.89,11.89,0,0,0,1.707-1.4q.954-.883,1.027-.941a2.308,2.308,0,0,1,1.274-.346,5.67,5.67,0,0,1,.708-1.245.507.507,0,0,1,.68-.029.538.538,0,0,1,.188.492q0,1.374-1.534,1.518a4.438,4.438,0,0,0-1,.159,10.655,10.655,0,0,0-1.693,1.331,4.01,4.01,0,0,1-1.765,1.013,1.584,1.584,0,0,1-.316.044Q21.307,31.165,21.308,31.092Zm5.223-3.27q.722-.086.723-.332,0-.2-.362-.2Q26.7,27.36,26.53,27.823ZM.779,23.859a2.128,2.128,0,0,1-.419-.391.21.21,0,0,1,.006-.051,3.614,3.614,0,0,0,.6.225,5.428,5.428,0,0,0,1.36.3,5.178,5.178,0,0,0,3.313-1.3A4.436,4.436,0,0,0,7.1,20.965a2.066,2.066,0,0,0-.043-.984Q6.7,21.168,5.814,21.168a.935.935,0,0,1-.781-.448,1.585,1.585,0,0,1-.275-.912A3.868,3.868,0,0,1,5.207,18.2q.535-1.042,1.128-1.041.493,0,.926.824a3.092,3.092,0,0,1,.347,1.273A6.511,6.511,0,0,1,5.77,24.119a2.925,2.925,0,0,1-2.011,1.028A4.911,4.911,0,0,1,.779,23.859Zm4.8-4.514c0,.174.187.241.563.2a.944.944,0,0,0,.391-.246c-.144-.3-.3-.449-.463-.449A.435.435,0,0,0,5.583,19.346ZM-7.076,23.44q0-.3,1.244-1.259A16.093,16.093,0,0,0-4.3,20.937q-.144-.911-.145-1a2.378,2.378,0,0,1,.622-1.548,1.914,1.914,0,0,1,.652-.333,1.026,1.026,0,0,0,.665-.55,1.866,1.866,0,0,0,.073-.636,21.545,21.545,0,0,0-.275-2.842A21.659,21.659,0,0,1-2.982,11.2q0-1.62.318-1.62.088.015.2.926.116,1.041.333,2.184A4.942,4.942,0,0,0-1.4,14.933a2.339,2.339,0,0,0,1.751.912,2.132,2.132,0,0,0,1.548-.622q.028-.058.2-.448.13-.275.274-.275c.039.01.058.063.058.159a8.3,8.3,0,0,1-.217,1.186q1.824,0,1.967-.3t.376-.86q.261-.622.391-.622.043.028.043.246,0,.261-.043.781a1.621,1.621,0,0,0,.622.275q.392.1.449,0a.141.141,0,0,0,.029-.174,1.622,1.622,0,0,1-.058-.376,2.47,2.47,0,0,1,.173-.659q.174-.485.3-.484.231,0,.231,1.1A4.146,4.146,0,0,1,6.494,16q-.261.838-.708.839a4.923,4.923,0,0,1-1.433-.391q-.188.347-.391.709a1.565,1.565,0,0,1-1.085.275,3.055,3.055,0,0,1-1.65-.275,2.924,2.924,0,0,1-1.186.26,1.933,1.933,0,0,1-1.678-.81A2.667,2.667,0,0,1-2.3,18.347a1.412,1.412,0,0,1,.8,1.2,3.531,3.531,0,0,1-.26,1.258q-.289.883-.781.883A2.239,2.239,0,0,1-3.98,21.2a6.5,6.5,0,0,1-.752,1.1,6.192,6.192,0,0,1-1.62.941,2.673,2.673,0,0,1-.678.228Q-7.076,23.465-7.076,23.44Zm3.458-4.325a.817.817,0,0,0,.39.672,1.352,1.352,0,0,0,.8.283c.154,0,.231-.044.231-.131q0-.217-.528-.586a1.678,1.678,0,0,0-.76-.369A.115.115,0,0,0-3.618,19.114ZM.475,23.338a.1.1,0,0,0-.11.08Q.232,23.338.475,23.338ZM-1.26,22.152a.6.6,0,0,1,.217-.1A9.129,9.129,0,0,0,.5,20.821q1.1-.969,1.547-.969a.887.887,0,0,1,.319.087.2.2,0,0,0,.2-.087,2.271,2.271,0,0,1,.347-.708l.131.086a1.455,1.455,0,0,0,0,.3c.038.115.144.174.318.174.155,0,.292-.121.412-.362l.181-.362.116.347q-.043,1.157-.9,1.157-.3,0-.332-.159a3.645,3.645,0,0,0-.637.274c-.068,0-.161,0-.282-.014s-.21-.014-.268-.014a3.547,3.547,0,0,0-1.3.883,2.493,2.493,0,0,1-1.245.737C-1.125,22.195-1.251,22.181-1.26,22.152Zm10.951-.941a1.3,1.3,0,0,1,.347-.477l2.445-1.389a.332.332,0,0,1,.13-.043q.1,0-.2.549a4.475,4.475,0,0,1-1.2.781q-.043.045-.723.536a1.312,1.312,0,0,1-.767.319C9.643,21.487,9.633,21.395,9.691,21.211Zm11.486-.752a2.473,2.473,0,0,0-.506-.218.085.085,0,0,1,.043-.072q.028-.086.4-.043a11.829,11.829,0,0,0,1.4.086,5.15,5.15,0,0,0,3.212-1.4A4.748,4.748,0,0,0,27.412,16.8a1.076,1.076,0,0,0-.159-.781q-.332,1.056-1.113,1.056a1,1,0,0,1-1.114-1.143,4.044,4.044,0,0,1,.434-1.649q.478-1.042,1.071-1.041.636,0,1.056.868a3.265,3.265,0,0,1,.347,1.418,5.67,5.67,0,0,1-.68,2.865q-1.547,2.734-3.066,2.734A7.122,7.122,0,0,1,21.177,20.46Zm5.006-5.6a.366.366,0,0,0-.319.391q0,.3.55.246a.666.666,0,0,0,.362-.275.825.825,0,0,0-.557-.364Zm-2.344,3.4a18.252,18.252,0,0,0-.636-3.84,18.236,18.236,0,0,1-.637-3.74,4.413,4.413,0,0,1,.2-.926q.2-.7.3-.695c.058,0,.086.1.086.3v.391a.336.336,0,0,0,.014.1,41.585,41.585,0,0,1,1.317,7.9q0,1.446-.289,1.5a.2.2,0,0,1-.05.007Q23.838,19.265,23.839,18.26ZM17.69,15.845q0-.767.362-.824a.563.563,0,0,0,.073.086,1.114,1.114,0,0,0-.044.347c.1.289.2.434.319.434.241,0,.41-.149.507-.448.125-.366.212-.56.26-.579a2.523,2.523,0,0,1,.2.362q.181.362.311.362c.173,0,.27-.14.289-.419.029-.309.063-.473.1-.492a.225.225,0,0,1,.086-.029q.2,0,.2.521a1.681,1.681,0,0,1-.2.78q-.261.463-.593.464a.562.562,0,0,1-.448-.231.91.91,0,0,1-.709.463Q17.691,16.64,17.69,15.845Zm-8.665-2.46a2.683,2.683,0,0,1-.217-1.07,7.314,7.314,0,0,0-.491.608A1.5,1.5,0,0,1,7.2,13.27q-1.418,0-1.418-.781,0-.68,1.49-1.562l1.245-.695a1.783,1.783,0,0,0,.563-1.056c.1-.386.184-.579.261-.579q.159,0,.086.665a6.3,6.3,0,0,0,.087,2.619,1.226,1.226,0,0,0,1.113.868,1.454,1.454,0,0,0,1.462-1.056A1.816,1.816,0,0,0,12.179,11a14.831,14.831,0,0,0-.122-1.584,14.868,14.868,0,0,1-.123-1.584q0-1.187.246-1.186a3.225,3.225,0,0,1,.188.665q.217,1.867.68,4.094a1.377,1.377,0,0,0,.824.478,1.079,1.079,0,0,0,.752,0q-1.057-3.7-1.057-3.935a4.482,4.482,0,0,1,.167-.919c.111-.439.185-.658.224-.658q.015.13.2.853t.579,2.184a13.171,13.171,0,0,1,.478,2.315q0,1.794-.941,1.794a1.787,1.787,0,0,1-1.476-.608l-.318-.622q-.7,2.083-2.1,2.083A1.4,1.4,0,0,1,9.025,13.385Zm-1.461-1.62c-.039.058.072.087.332.087q.724,0,.912-.218a.94.94,0,0,0,.043-.391c0-.135,0-.293-.014-.477A13.831,13.831,0,0,0,7.565,11.765Zm10.126,1.5a18.549,18.549,0,0,0-.868-4.094,16,16,0,0,1-.8-4.08q0-1.779.347-1.779c.077,0,.144.236.2.709q.115.969.911,4.455a26.955,26.955,0,0,1,.752,4.153q0,1.633-.391,1.634Q17.72,14.268,17.69,13.27Zm7.421-1.562a3.129,3.129,0,0,0-1.157-2.677.757.757,0,0,1-.072-.506c.01-.251.043-.376.1-.376q.317,0,.781.708A4.459,4.459,0,0,1,25.43,11.4q0,.724-.29.724A1.474,1.474,0,0,1,25.112,11.707ZM1.633,10.724a.806.806,0,0,1,.391-.636q.217-.146,2.228-.969,1.924-.753,2.083-.811a.372.372,0,0,0,.087-.029c.058,0,.086.049.086.145a.6.6,0,0,1-.362.608A29.858,29.858,0,0,1,1.72,10.824C1.661,10.824,1.633,10.791,1.633,10.724Zm-4.3-2.184q0-.7.391-.825c.03.049.053.092.073.131a1.019,1.019,0,0,0-.029.3c0,.318.091.477.275.477.241,0,.427-.168.557-.507a2,2,0,0,1,.238-.52A.227.227,0,0,1-1.1,7.584a1.131,1.131,0,0,1,.159.362c.087.241.174.361.261.361.173,0,.277-.142.311-.427A1.154,1.154,0,0,1-.262,7.4a.173.173,0,0,1,.115-.05c.126,0,.188.188.188.563a1.546,1.546,0,0,1-.217.752Q-.421,9.1-.754,9.1A.484.484,0,0,1-1.2,8.857a.924.924,0,0,1-.752.535Q-2.664,9.392-2.664,8.539Zm9.591-.3q.088-.058.608-.491A10.627,10.627,0,0,0,9.011,6.484q-.853-.636-.853-.955a1.424,1.424,0,0,1,.4-.9A1.027,1.027,0,0,1,9.4,4.184q.347.015.347.68a3.821,3.821,0,0,1-.2,1.1.509.509,0,0,1,.289.2.245.245,0,0,1,.029.115,1,1,0,0,1-.072.3c-.1.211-.178.3-.246.26a3.264,3.264,0,0,1-.275-.2,3.923,3.923,0,0,1-1.5,1.432,1.413,1.413,0,0,1-.709.188C6.98,8.264,6.937,8.255,6.927,8.235Zm1.795-2.98q.028.2.52.506a3.074,3.074,0,0,0,.029-.506c0-.231-.076-.347-.231-.347C8.827,4.908,8.722,5.024,8.722,5.255Zm2.1-.275q0-.78.362-.839a1.058,1.058,0,0,1,.087.145c-.03.193-.044.289-.044.289q.159.493.319.492.332,0,.507-.492a2.772,2.772,0,0,1,.231-.593q.115-.043.145.319.043.4.375.405c.194,0,.294-.125.3-.376.01-.356.077-.535.2-.535s.174.184.174.55a1.439,1.439,0,0,1-.217.752.644.644,0,0,1-.564.434.464.464,0,0,1-.419-.231.975.975,0,0,1-.738.507Q10.819,5.805,10.819,4.98Z" transform="translate(81 515)" fill="#fff"/>
    </g>
  </g>
</svg>
